/vscmnt/brussel_pixiu_data/_data_brussel/112/vsc11236/PredSimResults/SUBJ07mtu3D/worker5.mot
version=1
nRows=4
nColumns=50
inDegrees=yes
endheader
                time	         pelvis_tilt	         pelvis_list	     pelvis_rotation	           pelvis_tx	           pelvis_ty	           pelvis_tz	       hip_flexion_r	     hip_adduction_r	      hip_rotation_r	        knee_angle_r	       ankle_angle_r	         mtp_angle_r	       hip_flexion_l	     hip_adduction_l	      hip_rotation_l	        knee_angle_l	       ankle_angle_l	         mtp_angle_l	    lumbar_extension	      lumbar_bending	     lumbar_rotation	 ercspn_r/activation	 intobl_r/activation	 extobl_r/activation	    abd_r/activation	    add_r/activation	hamstrings_r/activation	bifemsh_r/activation	glut_max_r/activation	iliopsoas_r/activation	rect_fem_r/activation	  vasti_r/activation	gastroc_r/activation	 soleus_r/activation	tib_ant_r/activation	 ercspn_l/activation	 intobl_l/activation	 extobl_l/activation	    abd_l/activation	    add_l/activation	hamstrings_l/activation	bifemsh_l/activation	glut_max_l/activation	iliopsoas_l/activation	rect_fem_l/activation	  vasti_l/activation	gastroc_l/activation	 soleus_l/activation	tib_ant_l/activation	
          1.06199575	         -2.99008003	          0.91687454	          8.40163023	          1.29563482	          0.85441025	         -0.01322860	         28.80912977	         -3.03354417	         -2.34544707	         -6.31705442	          3.07757556	          0.27332190	        -15.18445590	          1.35183626	          4.36391921	         -5.92802364	          9.25549076	         23.36943928	        -12.18592014	         -2.79891725	         -1.84413000	          0.13116617	          0.18613719	          0.00999999	          0.04386270	          0.07978767	          0.05449750	          0.13954134	          0.02769988	          0.02258815	          0.02560893	          0.00999999	          0.01161090	          0.00999999	          0.40596983	          0.06294589	          0.00999999	          0.00999999	          0.04577703	          0.00999999	          0.01224241	          0.16363634	          0.01749145	          0.18550065	          0.00999999	          0.00999999	          0.14883924	          0.26857226	          0.01851188	
          1.07261571	         -3.00767175	          1.03660116	          8.40715645	          1.31050677	          0.85292567	         -0.01340726	         28.59727849	         -2.89608688	         -2.19141419	         -7.49929918	          2.87376120	          0.27517697	        -15.69024523	          1.40924839	          4.02365678	         -6.82767703	          8.54378481	         24.96046597	        -12.06778807	         -2.43449487	         -2.03658270	          0.11347811	          0.15814554	          0.00999999	          0.03726655	          0.10787818	          0.04630207	          0.11855686	          0.08521956	          0.01919130	          0.02175782	          0.00999999	          0.01385326	          0.01385326	          0.40147140	          0.12111150	          0.00999999	          0.00999999	          0.03889300	          0.00999999	          0.01385326	          0.13902841	          0.01486106	          0.15760472	          0.01176998	          0.00999999	          0.12645653	          0.25062393	          0.01572803	
          1.08323567	         -3.01803572	          1.13490816	          8.36844904	          1.32560126	          0.85156512	         -0.01354826	         28.30790404	         -2.79875086	         -1.91744018	         -8.83724415	          2.68115948	          0.25745920	        -16.10991139	          1.45400683	          3.65836578	         -7.91146712	          7.75075702	         26.53243675	        -11.93167554	         -2.03279324	         -2.22423941	          0.10860409	          0.13436333	          0.00999999	          0.06622570	          0.09596649	          0.05421553	          0.11525043	          0.11342977	          0.01630528	          0.01848584	          0.00999999	          0.01176998	          0.01176998	          0.44114294	          0.13618127	          0.00999999	          0.00999999	          0.03304420	          0.01211969	          0.01176998	          0.11812107	          0.01262622	          0.13390384	          0.00999999	          0.00999999	          0.10743976	          0.22570426	          0.01336282	
          1.09385563	         -3.02523245	          1.22590083	          8.27991591	          1.34076006	          0.85047932	         -0.01358962	         27.97593560	         -2.71328290	         -1.68584333	        -10.06624545	          2.35960597	          0.24568713	        -16.36355816	          1.50432934	          3.26422654	         -9.29347522	          6.85185770	         28.07154746	        -11.79536070	         -1.62293082	         -2.40152354	          0.12848485	          0.11415753	          0.00999999	          0.12597290	          0.11298970	          0.05000336	          0.09791887	          0.12556970	          0.01385326	          0.01570590	          0.00999999	          0.00999999	          0.00999999	          0.46695489	          0.15645328	          0.00999999	          0.00999999	          0.02807495	          0.01029711	          0.01000001	          0.10035781	          0.01072747	          0.11376714	          0.00999999	          0.00999999	          0.09128278	          0.19176245	          0.01135330	
